<?xml version="1.0" encoding="UTF-8" standalone="no"?>
<!-- Uploaded to: SVG Repo, www.svgrepo.com, Generator: SVG Repo Mixer Tools -->

<svg
   fill="#000000"
   width="800px"
   height="800px"
   viewBox="0 0 36 36"
   version="1.1"
   preserveAspectRatio="xMidYMid meet"
   id="svg250"
   sodipodi:docname="empty-star.svg"
   inkscape:version="1.2.2 (b0a8486541, 2022-12-01)"
   xmlns:inkscape="http://www.inkscape.org/namespaces/inkscape"
   xmlns:sodipodi="http://sodipodi.sourceforge.net/DTD/sodipodi-0.dtd"
   xmlns="http://www.w3.org/2000/svg"
   xmlns:svg="http://www.w3.org/2000/svg"
   xmlns:rdf="http://www.w3.org/1999/02/22-rdf-syntax-ns#"
   xmlns:cc="http://creativecommons.org/ns#"
   xmlns:dc="http://purl.org/dc/elements/1.1/">
  <defs
     id="defs254" />
  <sodipodi:namedview
     id="namedview252"
     pagecolor="#ffffff"
     bordercolor="#000000"
     borderopacity="0.25"
     inkscape:showpageshadow="2"
     inkscape:pageopacity="0.0"
     inkscape:pagecheckerboard="0"
     inkscape:deskcolor="#d1d1d1"
     showgrid="false"
     inkscape:zoom="1.01625"
     inkscape:cx="400.492"
     inkscape:cy="400.98401"
     inkscape:window-width="1920"
     inkscape:window-height="1016"
     inkscape:window-x="0"
     inkscape:window-y="0"
     inkscape:window-maximized="1"
     inkscape:current-layer="svg250" />
  <title
     id="title244">favorite-solid</title>
  <path
     class="clr-i-solid clr-i-solid-path-1"
     d="M34,16.78a2.22,2.22,0,0,0-1.29-4l-9-.34a.23.23,0,0,1-.2-.15L20.4,3.89a2.22,2.22,0,0,0-4.17,0l-3.1,8.43a.23.23,0,0,1-.2.15l-9,.34a2.22,2.22,0,0,0-1.29,4l7.06,5.55a.23.23,0,0,1,.08.24L7.35,31.21a2.22,2.22,0,0,0,3.38,2.45l7.46-5a.22.22,0,0,1,.25,0l7.46,5a2.2,2.2,0,0,0,2.55,0,2.2,2.2,0,0,0,.83-2.4l-2.45-8.64a.22.22,0,0,1,.08-.24Z"
     id="path246" />
  <rect
     x="0"
     y="0"
     width="36"
     height="36"
     fill-opacity="0"
     id="rect248" />
  <metadata
     id="metadata710">
    <rdf:RDF>
      <cc:Work
         rdf:about="">
        <dc:title>favorite-solid</dc:title>
      </cc:Work>
    </rdf:RDF>
  </metadata>
</svg>
