<?xml version="1.0" encoding="UTF-8" standalone="no"?>
<!-- Uploaded to: SVG Repo, www.svgrepo.com, Generator: SVG Repo Mixer Tools -->

<svg
   fill="#000000"
   width="800px"
   height="800px"
   viewBox="0 0 36 36"
   version="1.1"
   preserveAspectRatio="xMidYMid meet"
   id="svg15"
   sodipodi:docname="half-star.svg"
   inkscape:version="1.2.2 (b0a8486541, 2022-12-01)"
   xmlns:inkscape="http://www.inkscape.org/namespaces/inkscape"
   xmlns:sodipodi="http://sodipodi.sourceforge.net/DTD/sodipodi-0.dtd"
   xmlns="http://www.w3.org/2000/svg"
   xmlns:svg="http://www.w3.org/2000/svg">
  <defs
     id="defs19" />
  <sodipodi:namedview
     id="namedview17"
     pagecolor="#ffffff"
     bordercolor="#000000"
     borderopacity="0.25"
     inkscape:showpageshadow="2"
     inkscape:pageopacity="0.0"
     inkscape:pagecheckerboard="0"
     inkscape:deskcolor="#d1d1d1"
     showgrid="false"
     inkscape:zoom="0.64"
     inkscape:cx="207.8125"
     inkscape:cy="435.15625"
     inkscape:window-width="1920"
     inkscape:window-height="1016"
     inkscape:window-x="0"
     inkscape:window-y="0"
     inkscape:window-maximized="1"
     inkscape:current-layer="svg15" />
  <title
     id="title9">half-star-solid</title>
  <path
     id="path197"
     style="display:inline"
     d="M 18.221572 2.4343066 A 2.22 2.22 0 0 0 16.229971 3.8900391 L 13.12998 12.31998 A 0.23 0.23 0 0 1 12.930029 12.47001 L 3.9300293 12.809971 A 2.22 2.22 0 0 0 2.6399707 16.809961 L 9.6999609 22.35999 A 0.23 0.23 0 0 1 9.7800293 22.60002 L 7.3500293 31.209961 A 2.22 2.22 0 0 0 10.730039 33.66 L 18.19002 28.65999 A 0.22 0.22 0 0 1 18.43998 28.65999 L 25.899961 33.66 A 2.2 2.2 0 0 0 28.45002 33.66 A 2.2 2.2 0 0 0 29.279971 31.259971 L 26.83002 22.619971 A 0.22 0.22 0 0 1 26.91 22.380029 L 33.999961 16.77999 A 2.22 2.22 0 0 0 32.70999 12.78 L 23.70999 12.440039 A 0.23 0.23 0 0 1 23.510039 12.29001 L 20.400029 3.8900391 A 2.22 2.22 0 0 0 18.221572 2.4343066 z M 18.299971 4.4399707 A 0.2 0.2 0 0 1 18.300674 4.4399707 A 0.2 0.2 0 0 1 18.510029 4.59 L 21.620039 12.99999 A 2.22 2.22 0 0 0 23.61999 14.460029 L 32.61999 14.79999 A 0.22 0.22 0 0 1 32.74998 15.19998 L 25.68999 20.75001 A 2.21 2.21 0 0 0 24.900029 23.109961 L 27.34998 31.749961 A 0.22 0.22 0 0 1 27 32.00001 L 19.54002 27 A 2.21 2.21 0 0 0 18.300674 26.619961 A 2.21 2.21 0 0 0 18.299971 26.619961 A 2.21 2.21 0 0 0 17.060713 26.999912 L 9.6007324 31.999922 A 0.22 0.22 0 0 1 9.250752 31.749961 L 11.700703 23.109961 A 2.21 2.21 0 0 0 10.910742 20.749922 L 3.850752 15.19998 A 0.22 0.22 0 0 1 3.9807422 14.79999 L 12.980742 14.459941 A 2.22 2.22 0 0 0 14.980693 12.99999 L 18.090703 4.5899121 A 0.2 0.2 0 0 1 18.299971 4.4399707 z " />
  <rect
     x="0"
     y="0"
     width="36"
     height="36"
     fill-opacity="0"
     id="rect13"
     style="display:inline" />
</svg>
