<?xml version="1.0" encoding="UTF-8" standalone="no"?>
<!-- Uploaded to: SVG Repo, www.svgrepo.com, Generator: SVG Repo Mixer Tools -->

<svg
   fill="#000000"
   width="800px"
   height="800px"
   viewBox="0 0 36 36"
   version="1.1"
   preserveAspectRatio="xMidYMid meet"
   id="svg15"
   sodipodi:docname="half-star.svg"
   inkscape:version="1.2.2 (b0a8486541, 2022-12-01)"
   xmlns:inkscape="http://www.inkscape.org/namespaces/inkscape"
   xmlns:sodipodi="http://sodipodi.sourceforge.net/DTD/sodipodi-0.dtd"
   xmlns="http://www.w3.org/2000/svg"
   xmlns:svg="http://www.w3.org/2000/svg"
   xmlns:rdf="http://www.w3.org/1999/02/22-rdf-syntax-ns#"
   xmlns:cc="http://creativecommons.org/ns#"
   xmlns:dc="http://purl.org/dc/elements/1.1/">
  <defs
     id="defs19" />
  <sodipodi:namedview
     id="namedview17"
     pagecolor="#ffffff"
     bordercolor="#000000"
     borderopacity="0.25"
     inkscape:showpageshadow="2"
     inkscape:pageopacity="0.0"
     inkscape:pagecheckerboard="0"
     inkscape:deskcolor="#d1d1d1"
     showgrid="false"
     inkscape:zoom="0.64"
     inkscape:cx="82.8125"
     inkscape:cy="438.28125"
     inkscape:window-width="1920"
     inkscape:window-height="1016"
     inkscape:window-x="0"
     inkscape:window-y="0"
     inkscape:window-maximized="1"
     inkscape:current-layer="svg15" />
  <title
     id="title9">half-star-solid</title>
  <path
     id="path197"
     style="display:inline"
     d="M 18.221572 2.4343066 A 2.22 2.22 0 0 0 16.229971 3.8900391 L 13.12998 12.31998 A 0.23 0.23 0 0 1 12.930029 12.47001 L 3.9300293 12.809971 A 2.22 2.22 0 0 0 2.6399707 16.809961 L 9.6999609 22.35999 A 0.23 0.23 0 0 1 9.7800293 22.60002 L 7.3500293 31.209961 A 2.22 2.22 0 0 0 10.730039 33.66 L 18.19002 28.65999 A 0.22 0.22 0 0 1 18.43998 28.65999 L 25.899961 33.66 A 2.2 2.2 0 0 0 28.45002 33.66 A 2.2 2.2 0 0 0 29.279971 31.259971 L 26.83002 22.619971 A 0.22 0.22 0 0 1 26.91 22.380029 L 33.999961 16.77999 A 2.22 2.22 0 0 0 32.70999 12.78 L 23.70999 12.440039 A 0.23 0.23 0 0 1 23.510039 12.29001 L 20.400029 3.8900391 A 2.22 2.22 0 0 0 18.221572 2.4343066 z M 18.299971 4.4399707 A 0.2 0.2 0 0 1 18.300674 4.4399707 A 0.2 0.2 0 0 1 18.510029 4.59 L 21.620039 12.99999 A 2.22 2.22 0 0 0 23.61999 14.460029 L 32.61999 14.79999 A 0.22 0.22 0 0 1 32.74998 15.19998 L 25.68999 20.75001 A 2.21 2.21 0 0 0 24.900029 23.109961 L 27.34998 31.749961 A 0.22 0.22 0 0 1 27 32.00001 L 19.54002 27 A 2.21 2.21 0 0 0 18.300674 26.619961 A 2.21 2.21 0 0 0 18.299971 26.619961 A 2.21 2.21 0 0 0 17.060713 26.999912 L 9.6007324 31.999922 A 0.22 0.22 0 0 1 9.250752 31.749961 L 11.700703 23.109961 A 2.21 2.21 0 0 0 10.910742 20.749922 L 3.850752 15.19998 A 0.22 0.22 0 0 1 3.9807422 14.79999 L 12.980742 14.459941 A 2.22 2.22 0 0 0 14.980693 12.99999 L 18.090703 4.5899121 A 0.2 0.2 0 0 1 18.299971 4.4399707 z " />
  <rect
     x="0"
     y="0"
     width="36"
     height="36"
     fill-opacity="0"
     id="rect13"
     style="display:inline" />
  <path
     id="path11"
     style="display:inline"
     class="clr-i-solid clr-i-solid-path-1"
     d="m 18.299971,4.4399707 a 0.2,0.2 0 0 0 -0.209268,0.1499414 l -3.11001,8.4100779 a 2.22,2.22 0 0 1 -1.999951,1.459951 l -9,0.340049 a 0.22,0.22 0 0 0 -0.12999,0.39999 l 7.05999,5.549942 a 2.21,2.21 0 0 1 0.789961,2.360039 l -2.449951,8.64 a 0.22,0.22 0 0 0 0.34998,0.249961 l 7.459981,-5.00001 a 2.21,2.21 0 0 1 1.239258,-0.379951 2.21,2.21 0 0 1 7.03e-4,0 A 2.21,2.21 0 0 1 19.54002,27 L 27,32.00001 a 0.22,0.22 0 0 0 0.34998,-0.250049 l -2.449951,-8.64 A 2.21,2.21 0 0 1 25.68999,20.75001 l 7.05999,-5.55003 a 0.22,0.22 0 0 0 -0.12999,-0.39999 l -9,-0.339961 A 2.22,2.22 0 0 1 21.620039,12.99999 L 18.510029,4.59 a 0.2,0.2 0 0 0 -0.209355,-0.1500293 0.2,0.2 0 0 0 -7.03e-4,0 z M 33.869004,13.128926 A 2.22,2.22 0 0 1 34.0679,13.2721 2.22,2.22 0 0 0 33.869004,13.128926 Z M 34.0679,13.2721 A 2.22,2.22 0 0 1 34.249834,13.436279 2.22,2.22 0 0 0 34.0679,13.2721 Z m 0.181934,0.164179 a 2.22,2.22 0 0 1 0.23625,0.281338 2.22,2.22 0 0 0 -0.23625,-0.281338 z m 0.23625,0.281338 a 2.22,2.22 0 0 1 0.130254,0.207598 2.22,2.22 0 0 0 -0.130254,-0.207598 z M 2.393086,13.463262 a 2.22,2.22 0 0 0 -0.06697,0.07339 2.22,2.22 0 0 1 0.06706,-0.07339 2.22,2.22 0 0 0 -8.8e-5,0 z m 32.329863,0.682558 a 2.22,2.22 0 0 1 0.112764,0.349629 2.22,2.22 0 0 0 -0.112764,-0.349629 z m 0.137285,0.469776 a 2.22,2.22 0 0 1 0.029,0.243281 2.22,2.22 0 0 0 -0.029,-0.243281 z m 0.03103,0.48832 a 2.22,2.22 0 0 1 -0.04755,0.364307 2.22,2.22 0 0 0 0.04755,-0.364307 z m -0.04755,0.364307 a 2.22,2.22 0 0 1 -0.06486,0.236338 2.22,2.22 0 0 0 0.06486,-0.236338 z m -0.106963,0.351474 a 2.22,2.22 0 0 1 -0.163477,0.328975 2.22,2.22 0 0 0 0.163477,-0.328975 z m -0.163477,0.328975 a 2.22,2.22 0 0 1 -0.297861,0.388213 2.22,2.22 0 0 0 0.297861,-0.388213 z m -0.297861,0.388213 a 2.22,2.22 0 0 1 -0.179209,0.167168 2.22,2.22 0 0 0 0.179209,-0.167168 z m -31.91959,0.02083 a 2.22,2.22 0 0 0 0.284151,0.252246 2.22,2.22 0 0 1 -0.284151,-0.252246 z m 7.431856,5.989394 a 0.23,0.23 0 0 1 -0.0023,0.02663 0.23,0.23 0 0 0 0.0023,-0.02663 z m -2.437647,8.662852 a 2.22,2.22 0 0 0 -0.0726,0.367031 2.22,2.22 0 0 1 0.0726,-0.367031 z m 21.929942,0.05001 a 2.2,2.2 0 0 1 0.02373,0.08868 2.2,2.2 0 0 0 -0.02373,-0.08868 z m 0.03419,0.13333 a 2.2,2.2 0 0 1 0.01644,0.08139 2.2,2.2 0 0 0 -0.01644,-0.08139 z m 0.01925,0.0965 a 2.2,2.2 0 0 1 0.01239,0.07822 2.2,2.2 0 0 0 -0.01239,-0.07822 z M 7.264512,31.76376 a 2.22,2.22 0 0 0 0.02162,0.373535 2.22,2.22 0 0 1 -0.02162,-0.373535 z m 22.096845,0.26789 a 2.2,2.2 0 0 1 -0.0085,0.09132 2.2,2.2 0 0 0 0.0085,-0.09132 z m -0.632373,1.39043 a 2.2,2.2 0 0 1 -0.03261,0.03226 2.2,2.2 0 0 0 0.03261,-0.03226 z m -0.150556,0.138164 a 2.2,2.2 0 0 1 -0.05502,0.04474 2.2,2.2 0 0 0 0.05502,-0.04474 z" />
  <rect
     x="-1.7763568e-15"
     y="-1.110223e-16"
     width="36"
     height="36"
     fill-opacity="0"
     id="rect13-5"
     style="display:inline" />
  <path
     id="path264"
     class="clr-i-solid clr-i-solid-path-1"
     d="m 18.29997,4.4399707 a 0.2,0.2 0 0 0 -0.209268,0.1499414 l -3.11001,8.4100769 a 2.22,2.22 0 0 1 -1.999951,1.459951 l -8.9999995,0.340049 a 0.22,0.22 0 0 0 -0.12999,0.39999 l 7.0599895,5.549942 a 2.21,2.21 0 0 1 0.789961,2.360039 l -2.4499505,8.64 a 0.22,0.22 0 0 0 0.34998,0.249961 l 7.4599805,-5.00001 A 2.21,2.21 0 0 1 18.29997,26.61996 Z m 0.05599,0.00343 a 0.2,0.2 0 0 1 0.0348,0.012305 0.2,0.2 0 0 0 -0.0348,-0.012305 z m 15.513043,8.6855243 a 2.22,2.22 0 0 1 0.198896,0.143175 2.22,2.22 0 0 0 -0.198896,-0.143175 z m 0.198896,0.143175 a 2.22,2.22 0 0 1 0.181934,0.164178 2.22,2.22 0 0 0 -0.181934,-0.164178 z m 0.181934,0.164178 a 2.22,2.22 0 0 1 0.23625,0.281338 2.22,2.22 0 0 0 -0.23625,-0.281338 z m 0.23625,0.281338 a 2.22,2.22 0 0 1 0.130254,0.207599 2.22,2.22 0 0 0 -0.130254,-0.207599 z m -12.79459,-0.544219 a 2.22,2.22 0 0 0 0.185449,0.325724 2.22,2.22 0 0 1 -0.185449,-0.325724 z M 2.3930855,13.463261 a 2.22,2.22 0 0 0 -0.06697,0.07339 2.22,2.22 0 0 1 0.06706,-0.07339 2.22,2.22 0 0 0 -8.8e-5,0 z m 19.5965325,0.1858 a 2.22,2.22 0 0 0 0.124981,0.139922 2.22,2.22 0 0 1 -0.124981,-0.139922 z m 12.73333,0.496758 a 2.22,2.22 0 0 1 0.112764,0.349629 2.22,2.22 0 0 0 -0.112764,-0.349629 z m 0.137285,0.469776 a 2.22,2.22 0 0 1 0.029,0.243281 2.22,2.22 0 0 0 -0.029,-0.243281 z m 0.03103,0.48832 a 2.22,2.22 0 0 1 -0.04755,0.364309 2.22,2.22 0 0 0 0.04755,-0.364309 z m -0.04755,0.364309 a 2.22,2.22 0 0 1 -0.06486,0.236336 2.22,2.22 0 0 0 0.06486,-0.236336 z m -0.106963,0.351472 a 2.22,2.22 0 0 1 -0.163477,0.328975 2.22,2.22 0 0 0 0.163477,-0.328975 z m -0.163477,0.328975 a 2.22,2.22 0 0 1 -0.29786,0.388214 2.22,2.22 0 0 0 0.29786,-0.388214 z m -0.29786,0.388214 a 2.22,2.22 0 0 1 -0.179209,0.167168 2.22,2.22 0 0 0 0.179209,-0.167168 z m -31.9195905,0.02083 a 2.22,2.22 0 0 0 0.284151,0.252246 2.22,2.22 0 0 1 -0.284151,-0.252246 z m 22.4866405,5.617091 a 2.21,2.21 0 0 0 -0.02514,0.376346 2.21,2.21 0 0 1 0.02514,-0.376346 z M 9.7876755,22.547108 a 0.23,0.23 0 0 1 -0.0023,0.02663 0.23,0.23 0 0 0 0.0023,-0.02663 z m 8.5737295,4.075401 a 2.21,2.21 0 0 1 0.127002,0.0054 2.21,2.21 0 0 0 -0.127002,-0.0054 z M 7.3500285,31.20996 a 2.22,2.22 0 0 0 -0.0726,0.367032 2.22,2.22 0 0 1 0.0726,-0.367032 z M 29.27997,31.25997 a 2.2,2.2 0 0 1 0.02373,0.08868 2.2,2.2 0 0 0 -0.02373,-0.08868 z m 0.03419,0.13333 a 2.2,2.2 0 0 1 0.01644,0.08139 2.2,2.2 0 0 0 -0.01644,-0.08139 z m 0.01925,0.0965 A 2.2,2.2 0 0 1 29.3458,31.56802 2.2,2.2 0 0 0 29.33341,31.4898 Z M 7.2645115,31.76376 a 2.22,2.22 0 0 0 0.02162,0.373535 2.22,2.22 0 0 1 -0.02162,-0.373535 z m 22.0968445,0.267889 a 2.2,2.2 0 0 1 -0.0085,0.09132 2.2,2.2 0 0 0 0.0085,-0.09132 z m -0.632373,1.39043 a 2.2,2.2 0 0 1 -0.03261,0.03226 2.2,2.2 0 0 0 0.03261,-0.03226 z"
     style="fill:#ffff00" />
  <rect
     x="-1.7763568e-15"
     y="-1.110223e-16"
     width="36"
     height="36"
     fill-opacity="0"
     id="rect13-3"
     style="display:inline" />
  <rect
     x="-3.5527137e-15"
     y="-4.4408921e-16"
     width="36"
     height="36"
     fill-opacity="0"
     id="rect266"
     style="fill:#ffff00" />
  <rect
     x="-3.5527137e-15"
     y="-4.4408921e-16"
     width="36"
     height="36"
     fill-opacity="0"
     id="rect13-7"
     style="display:inline;fill:#ffff00" />
  <metadata
     id="metadata549">
    <rdf:RDF>
      <cc:Work
         rdf:about="">
        <dc:title>half-star-solid</dc:title>
      </cc:Work>
    </rdf:RDF>
  </metadata>
</svg>
